<?xml version="1.0" standalone="no"?>
<!DOCTYPE svg PUBLIC "-//W3C//DTD SVG 20010904//EN"
 "http://www.w3.org/TR/2001/REC-SVG-20010904/DTD/svg10.dtd">
<svg version="1.0" xmlns="http://www.w3.org/2000/svg"
 width="50.000000pt" height="67.000000pt" viewBox="0 0 50.000000 67.000000"
 preserveAspectRatio="xMidYMid meet">

<g transform="translate(0.000000,67.000000) scale(0.100000,-0.100000)"
fill="#000000" stroke="none">
<path d="M0 335 l0 -335 250 0 250 0 0 335 0 335 -250 0 -250 0 0 -335z m359
247 c63 -46 81 -164 32 -216 l-22 -23 26 -39 c23 -33 26 -47 23 -92 -8 -88
-67 -144 -153 -144 -86 0 -145 56 -153 144 -3 45 0 59 23 92 l26 39 -22 23
c-31 33 -37 116 -12 163 44 84 155 110 232 53z"/>
<path d="M220 459 l0 -69 46 0 c25 0 43 4 40 8 -3 5 -19 7 -36 4 -27 -4 -30
-2 -30 22 0 22 4 26 30 26 17 0 30 4 30 10 0 6 -3 9 -7 9 -33 -5 -53 3 -53 21
0 16 7 20 35 20 52 0 43 16 -10 17 l-45 2 0 -70z"/>
<path d="M220 220 l0 -70 39 0 c22 0 43 5 46 10 4 6 -8 10 -29 10 -29 0 -36 4
-36 20 0 19 6 23 43 23 9 0 17 4 17 8 0 5 -13 9 -30 9 -25 0 -30 4 -30 24 0
21 5 25 38 29 34 3 33 4 -10 5 l-48 2 0 -70z"/>
</g>
</svg>
